ffmpeg version 8.1.1-full_build-www.gyan.dev Copyright (c) 2000-2026 the FFmpeg developers
  built with gcc 15.2.0 (Rev13, Built by MSYS2 project)
  configuration: --enable-gpl --enable-version3 --enable-static --disable-w32threads --disable-autodetect --enable-cairo --enable-fontconfig --enable-iconv --enable-gnutls --enable-lcms2 --enable-libxml2 --enable-gmp --enable-bzlib --enable-lzma --enable-libsnappy --enable-zlib --enable-librist --enable-libsrt --enable-libssh --enable-libzmq --enable-avisynth --enable-libbluray --enable-libcaca --enable-libdvdnav --enable-libdvdread --enable-sdl2 --enable-libaribb24 --enable-libaribcaption --enable-libdav1d --enable-libdavs2 --enable-libopenjpeg --enable-libquirc --enable-libuavs3d --enable-libxevd --enable-libzvbi --enable-liboapv --enable-libqrencode --enable-librav1e --enable-libsvtav1 --enable-libvvenc --enable-libwebp --enable-libx264 --enable-libx265 --enable-libxavs2 --enable-libxeve --enable-libxvid --enable-libaom --enable-libjxl --enable-libsvtjpegxs --enable-libvpx --enable-mediafoundation --enable-libass --enable-frei0r --enable-libfreetype --enable-libfribidi --enable-libharfbuzz --enable-liblensfun --enable-libvidstab --enable-libvmaf --enable-libzimg --enable-amf --enable-cuda-llvm --enable-cuvid --enable-dxva2 --enable-d3d11va --enable-d3d12va --enable-ffnvcodec --enable-libvpl --enable-nvdec --enable-nvenc --enable-vaapi --enable-libshaderc --enable-vulkan --enable-libplacebo --enable-opencl --enable-libcdio --enable-openal --enable-libgme --enable-libmodplug --enable-libopenmpt --enable-libopencore-amrwb --enable-libmp3lame --enable-libshine --enable-libtheora --enable-libtwolame --enable-libvo-amrwbenc --enable-libcodec2 --enable-libilbc --enable-libgsm --enable-liblc3 --enable-libopencore-amrnb --enable-libopus --enable-libspeex --enable-libvorbis --enable-ladspa --enable-libbs2b --enable-libflite --enable-libmysofa --enable-librubberband --enable-libsoxr --enable-chromaprint --enable-whisper
  libavutil      60. 26.101 / 60. 26.101
  libavcodec     62. 28.101 / 62. 28.101
  libavformat    62. 12.101 / 62. 12.101
  libavdevice    62.  3.101 / 62.  3.101
  libavfilter    11. 14.101 / 11. 14.101
  libswscale      9.  5.101 /  9.  5.101
  libswresample   6.  3.101 /  6.  3.101
Input #0, mov,mp4,m4a,3gp,3g2,mj2, from 'D:\PythonProjects\viral-cutter-ai\benchmarks\runs\20260510_171633\roman_giertych_commentary\auto\cuts_raw\segment_1_19-54_36_20-31_18.mp4':
  Metadata:
    major_brand     : isom
    minor_version   : 512
    compatible_brands: isomiso2avc1mp41
    encoder         : Lavf62.12.101
  Duration: 00:00:36.82, start: 0.000000, bitrate: 3452 kb/s
  Stream #0:0[0x1](und): Video: h264 (High) (avc1 / 0x31637661), yuvj420p(pc, bt470bg/unknown/unknown, progressive), 1080x1920 [SAR 1:1 DAR 9:16], 3248 kb/s, 60 fps, 60 tbr, 15360 tbn, start 0.033008 (default)
    Metadata:
      handler_name    : VideoHandler
      encoder         : Lavc62.28.101 libx264
  Stream #0:1[0x2](eng): Audio: aac (LC) (mp4a / 0x6134706D), 48000 Hz, stereo, fltp, 194 kb/s (default)
    Metadata:
      handler_name    : SoundHandler
[Parsed_ass_0 @ 0000022ec5bcbcc0] libass API version: 0x1704000
[Parsed_ass_0 @ 0000022ec5bcbcc0] libass source: commit: 0.17.4-27-g1cbba0a8818c83495114b3c2b5730410eecbdb2c
[Parsed_ass_0 @ 0000022ec5bcbcc0] Shaper: FriBidi 1.0.16 (SIMPLE) HarfBuzz-ng 14.2.0 (COMPLEX)
[Parsed_ass_0 @ 0000022ec5bcbcc0] Using font provider directwrite (with GDI)
[Parsed_ass_0 @ 0000022ec5bcbcc0] Added subtitle file: 'D:\PythonProjects\viral-cutter-ai\benchmarks\runs\20260510_171633\roman_giertych_commentary\auto\cuts_raw\segment_1_19-54_36_20-31_18.ass' (6 styles, 16 events)
Stream mapping:
  Stream #0:0 -> #0:0 (h264 (native) -> h264 (libx264))
  Stream #0:1 -> #0:1 (aac (native) -> aac (native))
Press [q] to stop, [?] for help
[Parsed_ass_0 @ 0000022ec5bcb740] libass API version: 0x1704000
[Parsed_ass_0 @ 0000022ec5bcb740] libass source: commit: 0.17.4-27-g1cbba0a8818c83495114b3c2b5730410eecbdb2c
[Parsed_ass_0 @ 0000022ec5bcb740] Shaper: FriBidi 1.0.16 (SIMPLE) HarfBuzz-ng 14.2.0 (COMPLEX)
[Parsed_ass_0 @ 0000022ec5bcb740] Using font provider directwrite (with GDI)
[Parsed_ass_0 @ 0000022ec5bcb740] Added subtitle file: 'D:\PythonProjects\viral-cutter-ai\benchmarks\runs\20260510_171633\roman_giertych_commentary\auto\cuts_raw\segment_1_19-54_36_20-31_18.ass' (6 styles, 16 events)
[libx264 @ 0000022ec7a7ec00] using SAR=1/1
[libx264 @ 0000022ec7a7ec00] using cpu capabilities: MMX2 SSE2Fast SSSE3 SSE4.2 AVX FMA3 BMI2 AVX2 AVX512
[libx264 @ 0000022ec7a7ec00] profile High, level 4.2, 4:2:0, 8-bit
[libx264 @ 0000022ec7a7ec00] 264 - core 165 r3223 0480cb0 - H.264/MPEG-4 AVC codec - Copyleft 2003-2025 - http://www.videolan.org/x264.html - options: cabac=1 ref=3 deblock=1:0:0 analyse=0x3:0x113 me=hex subme=7 psy=1 psy_rd=1.00:0.00 mixed_ref=1 me_range=16 chroma_me=1 trellis=1 8x8dct=1 cqm=0 deadzone=21,11 fast_pskip=1 chroma_qp_offset=-2 threads=24 lookahead_threads=4 sliced_threads=0 nr=0 decimate=1 interlaced=0 bluray_compat=0 constrained_intra=0 bframes=3 b_pyramid=2 b_adapt=1 b_bias=0 direct=1 weightb=1 open_gop=0 weightp=2 keyint=250 keyint_min=25 scenecut=40 intra_refresh=0 rc_lookahead=40 rc=crf mbtree=1 crf=23.0 qcomp=0.60 qpmin=0 qpmax=69 qpstep=4 ip_ratio=1.40 aq=1:1.00
Output #0, mp4, to 'D:\PythonProjects\viral-cutter-ai\benchmarks\runs\20260510_171633\roman_giertych_commentary\auto\cuts_subtitles\segment_1_19-54_36_20-31_18.mp4':
  Metadata:
    major_brand     : isom
    minor_version   : 512
    compatible_brands: isomiso2avc1mp41
    encoder         : Lavf62.12.101
  Stream #0:0(und): Video: h264 (avc1 / 0x31637661), yuvj420p(pc, bt470bg/unknown/unknown, progressive), 1080x1920 [SAR 1:1 DAR 9:16], q=2-31, 60 fps, 15360 tbn (default)
    Metadata:
      encoder         : Lavc62.28.101 libx264
      handler_name    : VideoHandler
    Side data:
      CPB properties: bitrate max/min/avg: 0/0/0 buffer size: 0 vbv_delay: N/A
  Stream #0:1(eng): Audio: aac (LC) (mp4a / 0x6134706D), 48000 Hz, stereo, fltp, 192 kb/s (default)
    Metadata:
      encoder         : Lavc62.28.101 aac
      handler_name    : SoundHandler
[Parsed_ass_0 @ 0000022ec5bcb740] fontselect: (Arial Black, 400, 0) -> Arial-Black, 0, Arial-Black
frame=  141 fps=0.0 q=31.0 size=     512KiB time=00:00:02.35 bitrate=1785.0kbits/s speed=4.44x elapsed=0:00:00.52    frame=  352 fps=337 q=31.0 size=    1536KiB time=00:00:05.86 bitrate=2144.9kbits/s speed=5.61x elapsed=0:00:01.04    [Parsed_ass_0 @ 0000022ec5bcb740] fontselect: (Arial Black, 700, 0) -> Arial-Black, 0, Arial-Black
frame=  526 fps=337 q=31.0 size=    2304KiB time=00:00:08.76 bitrate=2153.0kbits/s speed=5.61x elapsed=0:00:01.56    frame=  666 fps=321 q=31.0 size=    3072KiB time=00:00:11.08 bitrate=2270.6kbits/s speed=5.34x elapsed=0:00:02.07    frame=  805 fps=311 q=31.0 size=    3840KiB time=00:00:13.41 bitrate=2344.7kbits/s speed=5.18x elapsed=0:00:02.58    frame=  969 fps=313 q=31.0 size=    4864KiB time=00:00:16.15 bitrate=2467.3kbits/s speed=5.21x elapsed=0:00:03.09    frame= 1149 fps=318 q=31.0 size=    5376KiB time=00:00:19.15 bitrate=2299.8kbits/s speed= 5.3x elapsed=0:00:03.61    frame= 1310 fps=317 q=31.0 size=    6144KiB time=00:00:21.83 bitrate=2305.3kbits/s speed=5.29x elapsed=0:00:04.12    frame= 1515 fps=326 q=31.0 size=    6656KiB time=00:00:25.25 bitrate=2159.5kbits/s speed=5.44x elapsed=0:00:04.64    frame= 1712 fps=332 q=31.0 size=    7424KiB time=00:00:28.53 bitrate=2131.5kbits/s speed=5.53x elapsed=0:00:05.15    frame= 1912 fps=337 q=31.0 size=    8448KiB time=00:00:31.86 bitrate=2171.7kbits/s speed=5.61x elapsed=0:00:05.67    frame= 2069 fps=334 q=31.0 size=    9216KiB time=00:00:34.48 bitrate=2189.4kbits/s speed=5.57x elapsed=0:00:06.19    [out#0/mp4 @ 0000022ec5bcd300] video:9453KiB audio:879KiB subtitle:0KiB other streams:0KiB global headers:0KiB muxing overhead: 0.566177%
frame= 2207 fps=333 q=-1.0 Lsize=   10391KiB time=00:00:36.78 bitrate=2314.1kbits/s speed=5.55x elapsed=0:00:06.62    
[libx264 @ 0000022ec7a7ec00] frame I:12    Avg QP:19.69  size: 65197
[libx264 @ 0000022ec7a7ec00] frame P:742   Avg QP:21.83  size:  9376
[libx264 @ 0000022ec7a7ec00] frame B:1453  Avg QP:24.84  size:  1335
[libx264 @ 0000022ec7a7ec00] consecutive B-frames:  3.4% 25.9%  1.6% 69.1%
[libx264 @ 0000022ec7a7ec00] mb I  I16..4: 17.3% 65.5% 17.2%
[libx264 @ 0000022ec7a7ec00] mb P  I16..4:  2.5%  4.9%  0.2%  P16..4: 25.9%  2.4%  1.5%  0.0%  0.0%    skip:62.5%
[libx264 @ 0000022ec7a7ec00] mb B  I16..4:  0.1%  0.1%  0.0%  B16..8: 15.0%  0.1%  0.0%  direct: 0.3%  skip:84.5%  L0:41.9% L1:57.6% BI: 0.5%
[libx264 @ 0000022ec7a7ec00] 8x8 transform intra:64.4% inter:85.2%
[libx264 @ 0000022ec7a7ec00] coded y,uvDC,uvAC intra: 21.9% 32.7% 5.8% inter: 1.7% 3.3% 0.0%
[libx264 @ 0000022ec7a7ec00] i16 v,h,dc,p: 28% 47%  5% 20%
[libx264 @ 0000022ec7a7ec00] i8 v,h,dc,ddl,ddr,vr,hd,vl,hu: 26% 22% 31%  3%  4%  4%  4%  3%  3%
[libx264 @ 0000022ec7a7ec00] i4 v,h,dc,ddl,ddr,vr,hd,vl,hu: 25% 27%  8%  5%  8%  8%  8%  6%  6%
[libx264 @ 0000022ec7a7ec00] i8c dc,h,v,p: 57% 19% 18%  5%
[libx264 @ 0000022ec7a7ec00] Weighted P-Frames: Y:0.0% UV:0.0%
[libx264 @ 0000022ec7a7ec00] ref P L0: 72.7%  7.3% 14.8%  5.1%
[libx264 @ 0000022ec7a7ec00] ref B L0: 90.1%  8.5%  1.3%
[libx264 @ 0000022ec7a7ec00] ref B L1: 97.9%  2.1%
[libx264 @ 0000022ec7a7ec00] kb/s:2105.21
[aac @ 0000022ec79d5ac0] Qavg: 673.008
ffmpeg version 8.1.1-full_build-www.gyan.dev Copyright (c) 2000-2026 the FFmpeg developers
  built with gcc 15.2.0 (Rev13, Built by MSYS2 project)
  configuration: --enable-gpl --enable-version3 --enable-static --disable-w32threads --disable-autodetect --enable-cairo --enable-fontconfig --enable-iconv --enable-gnutls --enable-lcms2 --enable-libxml2 --enable-gmp --enable-bzlib --enable-lzma --enable-libsnappy --enable-zlib --enable-librist --enable-libsrt --enable-libssh --enable-libzmq --enable-avisynth --enable-libbluray --enable-libcaca --enable-libdvdnav --enable-libdvdread --enable-sdl2 --enable-libaribb24 --enable-libaribcaption --enable-libdav1d --enable-libdavs2 --enable-libopenjpeg --enable-libquirc --enable-libuavs3d --enable-libxevd --enable-libzvbi --enable-liboapv --enable-libqrencode --enable-librav1e --enable-libsvtav1 --enable-libvvenc --enable-libwebp --enable-libx264 --enable-libx265 --enable-libxavs2 --enable-libxeve --enable-libxvid --enable-libaom --enable-libjxl --enable-libsvtjpegxs --enable-libvpx --enable-mediafoundation --enable-libass --enable-frei0r --enable-libfreetype --enable-libfribidi --enable-libharfbuzz --enable-liblensfun --enable-libvidstab --enable-libvmaf --enable-libzimg --enable-amf --enable-cuda-llvm --enable-cuvid --enable-dxva2 --enable-d3d11va --enable-d3d12va --enable-ffnvcodec --enable-libvpl --enable-nvdec --enable-nvenc --enable-vaapi --enable-libshaderc --enable-vulkan --enable-libplacebo --enable-opencl --enable-libcdio --enable-openal --enable-libgme --enable-libmodplug --enable-libopenmpt --enable-libopencore-amrwb --enable-libmp3lame --enable-libshine --enable-libtheora --enable-libtwolame --enable-libvo-amrwbenc --enable-libcodec2 --enable-libilbc --enable-libgsm --enable-liblc3 --enable-libopencore-amrnb --enable-libopus --enable-libspeex --enable-libvorbis --enable-ladspa --enable-libbs2b --enable-libflite --enable-libmysofa --enable-librubberband --enable-libsoxr --enable-chromaprint --enable-whisper
  libavutil      60. 26.101 / 60. 26.101
  libavcodec     62. 28.101 / 62. 28.101
  libavformat    62. 12.101 / 62. 12.101
  libavdevice    62.  3.101 / 62.  3.101
  libavfilter    11. 14.101 / 11. 14.101
  libswscale      9.  5.101 /  9.  5.101
  libswresample   6.  3.101 /  6.  3.101
Input #0, mov,mp4,m4a,3gp,3g2,mj2, from 'D:\PythonProjects\viral-cutter-ai\benchmarks\runs\20260510_171633\roman_giertych_commentary\auto\cuts_raw\segment_2_19-09_66_19-41_82.mp4':
  Metadata:
    major_brand     : isom
    minor_version   : 512
    compatible_brands: isomiso2avc1mp41
    encoder         : Lavf62.12.101
  Duration: 00:00:32.17, start: 0.000000, bitrate: 2772 kb/s
  Stream #0:0[0x1](und): Video: h264 (High) (avc1 / 0x31637661), yuvj420p(pc, bt470bg/unknown/unknown, progressive), 1080x1920 [SAR 1:1 DAR 9:16], 2567 kb/s, 60 fps, 60 tbr, 15360 tbn, start 0.033008 (default)
    Metadata:
      handler_name    : VideoHandler
      encoder         : Lavc62.28.101 libx264
  Stream #0:1[0x2](eng): Audio: aac (LC) (mp4a / 0x6134706D), 48000 Hz, stereo, fltp, 194 kb/s (default)
    Metadata:
      handler_name    : SoundHandler
[Parsed_ass_0 @ 0000027a0e25c4c0] libass API version: 0x1704000
[Parsed_ass_0 @ 0000027a0e25c4c0] libass source: commit: 0.17.4-27-g1cbba0a8818c83495114b3c2b5730410eecbdb2c
[Parsed_ass_0 @ 0000027a0e25c4c0] Shaper: FriBidi 1.0.16 (SIMPLE) HarfBuzz-ng 14.2.0 (COMPLEX)
[Parsed_ass_0 @ 0000027a0e25c4c0] Using font provider directwrite (with GDI)
[Parsed_ass_0 @ 0000027a0e25c4c0] Added subtitle file: 'D:\PythonProjects\viral-cutter-ai\benchmarks\runs\20260510_171633\roman_giertych_commentary\auto\cuts_raw\segment_2_19-09_66_19-41_82.ass' (7 styles, 13 events)
Stream mapping:
  Stream #0:0 -> #0:0 (h264 (native) -> h264 (libx264))
  Stream #0:1 -> #0:1 (aac (native) -> aac (native))
Press [q] to stop, [?] for help
[Parsed_ass_0 @ 0000027a0e25d7c0] libass API version: 0x1704000
[Parsed_ass_0 @ 0000027a0e25d7c0] libass source: commit: 0.17.4-27-g1cbba0a8818c83495114b3c2b5730410eecbdb2c
[Parsed_ass_0 @ 0000027a0e25d7c0] Shaper: FriBidi 1.0.16 (SIMPLE) HarfBuzz-ng 14.2.0 (COMPLEX)
[Parsed_ass_0 @ 0000027a0e25d7c0] Using font provider directwrite (with GDI)
[Parsed_ass_0 @ 0000027a0e25d7c0] Added subtitle file: 'D:\PythonProjects\viral-cutter-ai\benchmarks\runs\20260510_171633\roman_giertych_commentary\auto\cuts_raw\segment_2_19-09_66_19-41_82.ass' (7 styles, 13 events)
[Parsed_ass_0 @ 0000027a0e25d7c0] fontselect: (Arial Black, 700, 0) -> Arial-Black, 0, Arial-Black
[libx264 @ 0000027a0e286240] using SAR=1/1
[libx264 @ 0000027a0e286240] using cpu capabilities: MMX2 SSE2Fast SSSE3 SSE4.2 AVX FMA3 BMI2 AVX2 AVX512
[libx264 @ 0000027a0e286240] profile High, level 4.2, 4:2:0, 8-bit
[libx264 @ 0000027a0e286240] 264 - core 165 r3223 0480cb0 - H.264/MPEG-4 AVC codec - Copyleft 2003-2025 - http://www.videolan.org/x264.html - options: cabac=1 ref=3 deblock=1:0:0 analyse=0x3:0x113 me=hex subme=7 psy=1 psy_rd=1.00:0.00 mixed_ref=1 me_range=16 chroma_me=1 trellis=1 8x8dct=1 cqm=0 deadzone=21,11 fast_pskip=1 chroma_qp_offset=-2 threads=24 lookahead_threads=4 sliced_threads=0 nr=0 decimate=1 interlaced=0 bluray_compat=0 constrained_intra=0 bframes=3 b_pyramid=2 b_adapt=1 b_bias=0 direct=1 weightb=1 open_gop=0 weightp=2 keyint=250 keyint_min=25 scenecut=40 intra_refresh=0 rc_lookahead=40 rc=crf mbtree=1 crf=23.0 qcomp=0.60 qpmin=0 qpmax=69 qpstep=4 ip_ratio=1.40 aq=1:1.00
Output #0, mp4, to 'D:\PythonProjects\viral-cutter-ai\benchmarks\runs\20260510_171633\roman_giertych_commentary\auto\cuts_subtitles\segment_2_19-09_66_19-41_82.mp4':
  Metadata:
    major_brand     : isom
    minor_version   : 512
    compatible_brands: isomiso2avc1mp41
    encoder         : Lavf62.12.101
  Stream #0:0(und): Video: h264 (avc1 / 0x31637661), yuvj420p(pc, bt470bg/unknown/unknown, progressive), 1080x1920 [SAR 1:1 DAR 9:16], q=2-31, 60 fps, 15360 tbn (default)
    Metadata:
      encoder         : Lavc62.28.101 libx264
      handler_name    : VideoHandler
    Side data:
      CPB properties: bitrate max/min/avg: 0/0/0 buffer size: 0 vbv_delay: N/A
  Stream #0:1(eng): Audio: aac (LC) (mp4a / 0x6134706D), 48000 Hz, stereo, fltp, 192 kb/s (default)
    Metadata:
      encoder         : Lavc62.28.101 aac
      handler_name    : SoundHandler
[Parsed_ass_0 @ 0000027a0e25d7c0] fontselect: (Arial Black, 400, 0) -> Arial-Black, 0, Arial-Black
frame=  123 fps=0.0 q=31.0 size=     256KiB time=00:00:02.05 bitrate=1023.2kbits/s speed=3.91x elapsed=0:00:00.52    frame=  279 fps=269 q=31.0 size=    1280KiB time=00:00:04.65 bitrate=2255.1kbits/s speed=4.48x elapsed=0:00:01.03    frame=  421 fps=271 q=31.0 size=    2048KiB time=00:00:07.01 bitrate=2391.1kbits/s speed=4.51x elapsed=0:00:01.55    frame=  565 fps=273 q=31.0 size=    3072KiB time=00:00:09.41 bitrate=2672.5kbits/s speed=4.56x elapsed=0:00:02.06    frame=  750 fps=291 q=31.0 size=    3840KiB time=00:00:12.50 bitrate=2516.6kbits/s speed=4.84x elapsed=0:00:02.58    frame=  955 fps=309 q=31.0 size=    4608KiB time=00:00:15.91 bitrate=2371.7kbits/s speed=5.15x elapsed=0:00:03.08    frame= 1150 fps=319 q=31.0 size=    5376KiB time=00:00:19.16 bitrate=2297.8kbits/s speed=5.31x elapsed=0:00:03.60    frame= 1316 fps=319 q=31.0 size=    6144KiB time=00:00:21.93 bitrate=2294.8kbits/s speed=5.32x elapsed=0:00:04.12    frame= 1496 fps=323 q=31.0 size=    6656KiB time=00:00:24.93 bitrate=2186.9kbits/s speed=5.38x elapsed=0:00:04.63    frame= 1685 fps=327 q=31.0 size=    7424KiB time=00:00:28.08 bitrate=2165.6kbits/s speed=5.45x elapsed=0:00:05.15    frame= 1868 fps=330 q=31.0 size=    8192KiB time=N/A bitrate=N/A speed=N/A elapsed=0:00:05.66    [out#0/mp4 @ 0000027a0e1dfd80] video:7741KiB audio:767KiB subtitle:0KiB other streams:0KiB global headers:0KiB muxing overhead: 0.603742%
frame= 1928 fps=334 q=-1.0 Lsize=    8559KiB time=00:00:32.13 bitrate=2182.1kbits/s speed=5.57x elapsed=0:00:05.77    
[libx264 @ 0000027a0e286240] frame I:10    Avg QP:19.73  size: 60831
[libx264 @ 0000027a0e286240] frame P:572   Avg QP:21.88  size:  9276
[libx264 @ 0000027a0e286240] frame B:1346  Avg QP:25.04  size:  1494
[libx264 @ 0000027a0e286240] consecutive B-frames:  1.3% 16.0%  2.2% 80.5%
[libx264 @ 0000027a0e286240] mb I  I16..4: 17.2% 68.9% 13.9%
[libx264 @ 0000027a0e286240] mb P  I16..4:  2.3%  4.2%  0.2%  P16..4: 29.7%  2.3%  1.4%  0.0%  0.0%    skip:59.9%
[libx264 @ 0000027a0e286240] mb B  I16..4:  0.1%  0.1%  0.0%  B16..8: 17.3%  0.1%  0.0%  direct: 0.1%  skip:82.3%  L0:42.0% L1:57.6% BI: 0.3%
[libx264 @ 0000027a0e286240] 8x8 transform intra:64.1% inter:90.3%
[libx264 @ 0000027a0e286240] coded y,uvDC,uvAC intra: 22.7% 38.4% 7.3% inter: 1.3% 3.3% 0.0%
[libx264 @ 0000027a0e286240] i16 v,h,dc,p: 33% 35%  6% 26%
[libx264 @ 0000027a0e286240] i8 v,h,dc,ddl,ddr,vr,hd,vl,hu: 26% 18% 30%  3%  5%  5%  5%  4%  3%
[libx264 @ 0000027a0e286240] i4 v,h,dc,ddl,ddr,vr,hd,vl,hu: 31% 19%  9%  6%  8%  9%  7%  7%  5%
[libx264 @ 0000027a0e286240] i8c dc,h,v,p: 54% 21% 19%  6%
[libx264 @ 0000027a0e286240] Weighted P-Frames: Y:0.2% UV:0.0%
[libx264 @ 0000027a0e286240] ref P L0: 72.5%  6.3% 16.3%  4.9%
[libx264 @ 0000027a0e286240] ref B L0: 90.5%  8.2%  1.4%
[libx264 @ 0000027a0e286240] ref B L1: 97.9%  2.1%
[libx264 @ 0000027a0e286240] kb/s:1973.20
[aac @ 0000027a0fd8ab40] Qavg: 679.685
ffmpeg version 8.1.1-full_build-www.gyan.dev Copyright (c) 2000-2026 the FFmpeg developers
  built with gcc 15.2.0 (Rev13, Built by MSYS2 project)
  configuration: --enable-gpl --enable-version3 --enable-static --disable-w32threads --disable-autodetect --enable-cairo --enable-fontconfig --enable-iconv --enable-gnutls --enable-lcms2 --enable-libxml2 --enable-gmp --enable-bzlib --enable-lzma --enable-libsnappy --enable-zlib --enable-librist --enable-libsrt --enable-libssh --enable-libzmq --enable-avisynth --enable-libbluray --enable-libcaca --enable-libdvdnav --enable-libdvdread --enable-sdl2 --enable-libaribb24 --enable-libaribcaption --enable-libdav1d --enable-libdavs2 --enable-libopenjpeg --enable-libquirc --enable-libuavs3d --enable-libxevd --enable-libzvbi --enable-liboapv --enable-libqrencode --enable-librav1e --enable-libsvtav1 --enable-libvvenc --enable-libwebp --enable-libx264 --enable-libx265 --enable-libxavs2 --enable-libxeve --enable-libxvid --enable-libaom --enable-libjxl --enable-libsvtjpegxs --enable-libvpx --enable-mediafoundation --enable-libass --enable-frei0r --enable-libfreetype --enable-libfribidi --enable-libharfbuzz --enable-liblensfun --enable-libvidstab --enable-libvmaf --enable-libzimg --enable-amf --enable-cuda-llvm --enable-cuvid --enable-dxva2 --enable-d3d11va --enable-d3d12va --enable-ffnvcodec --enable-libvpl --enable-nvdec --enable-nvenc --enable-vaapi --enable-libshaderc --enable-vulkan --enable-libplacebo --enable-opencl --enable-libcdio --enable-openal --enable-libgme --enable-libmodplug --enable-libopenmpt --enable-libopencore-amrwb --enable-libmp3lame --enable-libshine --enable-libtheora --enable-libtwolame --enable-libvo-amrwbenc --enable-libcodec2 --enable-libilbc --enable-libgsm --enable-liblc3 --enable-libopencore-amrnb --enable-libopus --enable-libspeex --enable-libvorbis --enable-ladspa --enable-libbs2b --enable-libflite --enable-libmysofa --enable-librubberband --enable-libsoxr --enable-chromaprint --enable-whisper
  libavutil      60. 26.101 / 60. 26.101
  libavcodec     62. 28.101 / 62. 28.101
  libavformat    62. 12.101 / 62. 12.101
  libavdevice    62.  3.101 / 62.  3.101
  libavfilter    11. 14.101 / 11. 14.101
  libswscale      9.  5.101 /  9.  5.101
  libswresample   6.  3.101 /  6.  3.101
Input #0, mov,mp4,m4a,3gp,3g2,mj2, from 'D:\PythonProjects\viral-cutter-ai\benchmarks\runs\20260510_171633\roman_giertych_commentary\auto\cuts_raw\segment_3_00-53_90_01-26_86.mp4':
  Metadata:
    major_brand     : isom
    minor_version   : 512
    compatible_brands: isomiso2avc1mp41
    encoder         : Lavf62.12.101
  Duration: 00:00:32.96, start: 0.000000, bitrate: 3829 kb/s
  Stream #0:0[0x1](und): Video: h264 (High) (avc1 / 0x31637661), yuvj420p(pc, bt470bg/unknown/unknown, progressive), 1080x1920 [SAR 1:1 DAR 9:16], 3628 kb/s, 60 fps, 60 tbr, 15360 tbn, start 0.033008 (default)
    Metadata:
      handler_name    : VideoHandler
      encoder         : Lavc62.28.101 libx264
  Stream #0:1[0x2](eng): Audio: aac (LC) (mp4a / 0x6134706D), 48000 Hz, stereo, fltp, 193 kb/s (default)
    Metadata:
      handler_name    : SoundHandler
[Parsed_ass_0 @ 0000028876f78fc0] libass API version: 0x1704000
[Parsed_ass_0 @ 0000028876f78fc0] libass source: commit: 0.17.4-27-g1cbba0a8818c83495114b3c2b5730410eecbdb2c
[Parsed_ass_0 @ 0000028876f78fc0] Shaper: FriBidi 1.0.16 (SIMPLE) HarfBuzz-ng 14.2.0 (COMPLEX)
[Parsed_ass_0 @ 0000028876f78fc0] Using font provider directwrite (with GDI)
[Parsed_ass_0 @ 0000028876f78fc0] Added subtitle file: 'D:\PythonProjects\viral-cutter-ai\benchmarks\runs\20260510_171633\roman_giertych_commentary\auto\cuts_raw\segment_3_00-53_90_01-26_86.ass' (6 styles, 7 events)
Stream mapping:
  Stream #0:0 -> #0:0 (h264 (native) -> h264 (libx264))
  Stream #0:1 -> #0:1 (aac (native) -> aac (native))
Press [q] to stop, [?] for help
[Parsed_ass_0 @ 0000028876f790c0] libass API version: 0x1704000
[Parsed_ass_0 @ 0000028876f790c0] libass source: commit: 0.17.4-27-g1cbba0a8818c83495114b3c2b5730410eecbdb2c
[Parsed_ass_0 @ 0000028876f790c0] Shaper: FriBidi 1.0.16 (SIMPLE) HarfBuzz-ng 14.2.0 (COMPLEX)
[Parsed_ass_0 @ 0000028876f790c0] Using font provider directwrite (with GDI)
[Parsed_ass_0 @ 0000028876f790c0] Added subtitle file: 'D:\PythonProjects\viral-cutter-ai\benchmarks\runs\20260510_171633\roman_giertych_commentary\auto\cuts_raw\segment_3_00-53_90_01-26_86.ass' (6 styles, 7 events)
[Parsed_ass_0 @ 0000028876f790c0] fontselect: (Arial Black, 400, 0) -> Arial-Black, 0, Arial-Black
[libx264 @ 0000028876f54280] using SAR=1/1
[libx264 @ 0000028876f54280] using cpu capabilities: MMX2 SSE2Fast SSSE3 SSE4.2 AVX FMA3 BMI2 AVX2 AVX512
[libx264 @ 0000028876f54280] profile High, level 4.2, 4:2:0, 8-bit
[libx264 @ 0000028876f54280] 264 - core 165 r3223 0480cb0 - H.264/MPEG-4 AVC codec - Copyleft 2003-2025 - http://www.videolan.org/x264.html - options: cabac=1 ref=3 deblock=1:0:0 analyse=0x3:0x113 me=hex subme=7 psy=1 psy_rd=1.00:0.00 mixed_ref=1 me_range=16 chroma_me=1 trellis=1 8x8dct=1 cqm=0 deadzone=21,11 fast_pskip=1 chroma_qp_offset=-2 threads=24 lookahead_threads=4 sliced_threads=0 nr=0 decimate=1 interlaced=0 bluray_compat=0 constrained_intra=0 bframes=3 b_pyramid=2 b_adapt=1 b_bias=0 direct=1 weightb=1 open_gop=0 weightp=2 keyint=250 keyint_min=25 scenecut=40 intra_refresh=0 rc_lookahead=40 rc=crf mbtree=1 crf=23.0 qcomp=0.60 qpmin=0 qpmax=69 qpstep=4 ip_ratio=1.40 aq=1:1.00
Output #0, mp4, to 'D:\PythonProjects\viral-cutter-ai\benchmarks\runs\20260510_171633\roman_giertych_commentary\auto\cuts_subtitles\segment_3_00-53_90_01-26_86.mp4':
  Metadata:
    major_brand     : isom
    minor_version   : 512
    compatible_brands: isomiso2avc1mp41
    encoder         : Lavf62.12.101
  Stream #0:0(und): Video: h264 (avc1 / 0x31637661), yuvj420p(pc, bt470bg/unknown/unknown, progressive), 1080x1920 [SAR 1:1 DAR 9:16], q=2-31, 60 fps, 15360 tbn (default)
    Metadata:
      encoder         : Lavc62.28.101 libx264
      handler_name    : VideoHandler
    Side data:
      CPB properties: bitrate max/min/avg: 0/0/0 buffer size: 0 vbv_delay: N/A
  Stream #0:1(eng): Audio: aac (LC) (mp4a / 0x6134706D), 48000 Hz, stereo, fltp, 192 kb/s (default)
    Metadata:
      encoder         : Lavc62.28.101 aac
      handler_name    : SoundHandler
frame=  116 fps=0.0 q=31.0 size=     256KiB time=00:00:01.93 bitrate=1084.9kbits/s speed=3.82x elapsed=0:00:00.50    frame=  253 fps=248 q=31.0 size=    1024KiB time=00:00:04.21 bitrate=1989.5kbits/s speed=4.13x elapsed=0:00:01.02    frame=  381 fps=248 q=31.0 size=    2048KiB time=00:00:06.35 bitrate=2642.1kbits/s speed=4.13x elapsed=0:00:01.53    frame=  514 fps=249 q=31.0 size=    3072KiB time=00:00:08.56 bitrate=2937.7kbits/s speed=4.15x elapsed=0:00:02.06    frame=  635 fps=246 q=31.0 size=    3840KiB time=00:00:10.58 bitrate=2972.4kbits/s speed=4.11x elapsed=0:00:02.57    frame=  901 fps=291 q=31.0 size=    4608KiB time=00:00:15.01 bitrate=2513.8kbits/s speed=4.85x elapsed=0:00:03.09    frame= 1045 fps=290 q=31.0 size=    5376KiB time=00:00:17.41 bitrate=2528.6kbits/s speed=4.83x elapsed=0:00:03.60    frame= 1147 fps=278 q=31.0 size=    6912KiB time=00:00:19.11 bitrate=2962.0kbits/s speed=4.63x elapsed=0:00:04.12    frame= 1244 fps=268 q=31.0 size=    8704KiB time=00:00:20.73 bitrate=3439.1kbits/s speed=4.47x elapsed=0:00:04.63    frame= 1355 fps=263 q=31.0 size=   10496KiB time=00:00:22.58 bitrate=3807.4kbits/s speed=4.38x elapsed=0:00:05.15    frame= 1573 fps=277 q=31.0 size=   11264KiB time=00:00:26.21 bitrate=3519.7kbits/s speed=4.62x elapsed=0:00:05.66    frame= 1777 fps=287 q=31.0 size=   11776KiB time=00:00:29.61 bitrate=3257.3kbits/s speed=4.79x elapsed=0:00:06.18    [out#0/mp4 @ 0000028876eb0d00] video:12025KiB audio:778KiB subtitle:0KiB other streams:0KiB global headers:0KiB muxing overhead: 0.407363%
frame= 1975 fps=296 q=-1.0 Lsize=   12855KiB time=00:00:32.91 bitrate=3199.3kbits/s speed=4.93x elapsed=0:00:06.67    
[libx264 @ 0000028876f54280] frame I:11    Avg QP:18.85  size: 46993
[libx264 @ 0000028876f54280] frame P:680   Avg QP:22.82  size: 13406
[libx264 @ 0000028876f54280] frame B:1284  Avg QP:23.35  size:  2087
[libx264 @ 0000028876f54280] consecutive B-frames:  4.9% 23.7%  5.0% 66.4%
[libx264 @ 0000028876f54280] mb I  I16..4: 15.0% 76.4%  8.5%
[libx264 @ 0000028876f54280] mb P  I16..4:  2.9%  9.0%  0.3%  P16..4: 36.4%  3.3%  1.4%  0.0%  0.0%    skip:46.6%
[libx264 @ 0000028876f54280] mb B  I16..4:  0.2%  0.5%  0.0%  B16..8: 16.4%  0.3%  0.0%  direct: 0.6%  skip:81.9%  L0:40.2% L1:59.1% BI: 0.7%
[libx264 @ 0000028876f54280] 8x8 transform intra:73.2% inter:87.0%
[libx264 @ 0000028876f54280] coded y,uvDC,uvAC intra: 20.2% 29.8% 3.6% inter: 3.3% 3.7% 0.1%
[libx264 @ 0000028876f54280] i16 v,h,dc,p: 28% 29%  8% 35%
[libx264 @ 0000028876f54280] i8 v,h,dc,ddl,ddr,vr,hd,vl,hu: 32% 18% 27%  3%  5%  4%  5%  3%  3%
[libx264 @ 0000028876f54280] i4 v,h,dc,ddl,ddr,vr,hd,vl,hu: 24% 27% 12%  5%  7%  7%  8%  5%  5%
[libx264 @ 0000028876f54280] i8c dc,h,v,p: 63% 19% 15%  4%
[libx264 @ 0000028876f54280] Weighted P-Frames: Y:2.8% UV:1.0%
[libx264 @ 0000028876f54280] ref P L0: 76.3% 11.3%  9.4%  2.9%  0.0%
[libx264 @ 0000028876f54280] ref B L0: 91.4%  7.4%  1.2%
[libx264 @ 0000028876f54280] ref B L1: 99.1%  0.9%
[libx264 @ 0000028876f54280] kb/s:2992.55
[aac @ 0000028878edf580] Qavg: 1571.460
ffmpeg version 8.1.1-full_build-www.gyan.dev Copyright (c) 2000-2026 the FFmpeg developers
  built with gcc 15.2.0 (Rev13, Built by MSYS2 project)
  configuration: --enable-gpl --enable-version3 --enable-static --disable-w32threads --disable-autodetect --enable-cairo --enable-fontconfig --enable-iconv --enable-gnutls --enable-lcms2 --enable-libxml2 --enable-gmp --enable-bzlib --enable-lzma --enable-libsnappy --enable-zlib --enable-librist --enable-libsrt --enable-libssh --enable-libzmq --enable-avisynth --enable-libbluray --enable-libcaca --enable-libdvdnav --enable-libdvdread --enable-sdl2 --enable-libaribb24 --enable-libaribcaption --enable-libdav1d --enable-libdavs2 --enable-libopenjpeg --enable-libquirc --enable-libuavs3d --enable-libxevd --enable-libzvbi --enable-liboapv --enable-libqrencode --enable-librav1e --enable-libsvtav1 --enable-libvvenc --enable-libwebp --enable-libx264 --enable-libx265 --enable-libxavs2 --enable-libxeve --enable-libxvid --enable-libaom --enable-libjxl --enable-libsvtjpegxs --enable-libvpx --enable-mediafoundation --enable-libass --enable-frei0r --enable-libfreetype --enable-libfribidi --enable-libharfbuzz --enable-liblensfun --enable-libvidstab --enable-libvmaf --enable-libzimg --enable-amf --enable-cuda-llvm --enable-cuvid --enable-dxva2 --enable-d3d11va --enable-d3d12va --enable-ffnvcodec --enable-libvpl --enable-nvdec --enable-nvenc --enable-vaapi --enable-libshaderc --enable-vulkan --enable-libplacebo --enable-opencl --enable-libcdio --enable-openal --enable-libgme --enable-libmodplug --enable-libopenmpt --enable-libopencore-amrwb --enable-libmp3lame --enable-libshine --enable-libtheora --enable-libtwolame --enable-libvo-amrwbenc --enable-libcodec2 --enable-libilbc --enable-libgsm --enable-liblc3 --enable-libopencore-amrnb --enable-libopus --enable-libspeex --enable-libvorbis --enable-ladspa --enable-libbs2b --enable-libflite --enable-libmysofa --enable-librubberband --enable-libsoxr --enable-chromaprint --enable-whisper
  libavutil      60. 26.101 / 60. 26.101
  libavcodec     62. 28.101 / 62. 28.101
  libavformat    62. 12.101 / 62. 12.101
  libavdevice    62.  3.101 / 62.  3.101
  libavfilter    11. 14.101 / 11. 14.101
  libswscale      9.  5.101 /  9.  5.101
  libswresample   6.  3.101 /  6.  3.101
Input #0, mov,mp4,m4a,3gp,3g2,mj2, from 'D:\PythonProjects\viral-cutter-ai\benchmarks\runs\20260510_171633\roman_giertych_commentary\auto\cuts_raw\segment_4_11-14_48_11-53_92.mp4':
  Metadata:
    major_brand     : isom
    minor_version   : 512
    compatible_brands: isomiso2avc1mp41
    encoder         : Lavf62.12.101
  Duration: 00:00:39.45, start: 0.000000, bitrate: 2438 kb/s
  Stream #0:0[0x1](und): Video: h264 (High) (avc1 / 0x31637661), yuvj420p(pc, bt470bg/unknown/unknown, progressive), 1080x1920 [SAR 1:1 DAR 9:16], 2233 kb/s, 60 fps, 60 tbr, 15360 tbn, start 0.033008 (default)
    Metadata:
      handler_name    : VideoHandler
      encoder         : Lavc62.28.101 libx264
  Stream #0:1[0x2](eng): Audio: aac (LC) (mp4a / 0x6134706D), 48000 Hz, stereo, fltp, 193 kb/s (default)
    Metadata:
      handler_name    : SoundHandler
[Parsed_ass_0 @ 0000018af3d33a80] libass API version: 0x1704000
[Parsed_ass_0 @ 0000018af3d33a80] libass source: commit: 0.17.4-27-g1cbba0a8818c83495114b3c2b5730410eecbdb2c
[Parsed_ass_0 @ 0000018af3d33a80] Shaper: FriBidi 1.0.16 (SIMPLE) HarfBuzz-ng 14.2.0 (COMPLEX)
[Parsed_ass_0 @ 0000018af3d33a80] Using font provider directwrite (with GDI)
[Parsed_ass_0 @ 0000018af3d33a80] Added subtitle file: 'D:\PythonProjects\viral-cutter-ai\benchmarks\runs\20260510_171633\roman_giertych_commentary\auto\cuts_raw\segment_4_11-14_48_11-53_92.ass' (7 styles, 11 events)
Stream mapping:
  Stream #0:0 -> #0:0 (h264 (native) -> h264 (libx264))
  Stream #0:1 -> #0:1 (aac (native) -> aac (native))
Press [q] to stop, [?] for help
[Parsed_ass_0 @ 0000018af3d34400] libass API version: 0x1704000
[Parsed_ass_0 @ 0000018af3d34400] libass source: commit: 0.17.4-27-g1cbba0a8818c83495114b3c2b5730410eecbdb2c
[Parsed_ass_0 @ 0000018af3d34400] Shaper: FriBidi 1.0.16 (SIMPLE) HarfBuzz-ng 14.2.0 (COMPLEX)
[Parsed_ass_0 @ 0000018af3d34400] Using font provider directwrite (with GDI)
[Parsed_ass_0 @ 0000018af3d34400] Added subtitle file: 'D:\PythonProjects\viral-cutter-ai\benchmarks\runs\20260510_171633\roman_giertych_commentary\auto\cuts_raw\segment_4_11-14_48_11-53_92.ass' (7 styles, 11 events)
[Parsed_ass_0 @ 0000018af3d34400] fontselect: (Arial Black, 400, 0) -> Arial-Black, 0, Arial-Black
[libx264 @ 0000018af5ebeb80] using SAR=1/1
[libx264 @ 0000018af5ebeb80] using cpu capabilities: MMX2 SSE2Fast SSSE3 SSE4.2 AVX FMA3 BMI2 AVX2 AVX512
[libx264 @ 0000018af5ebeb80] profile High, level 4.2, 4:2:0, 8-bit
[libx264 @ 0000018af5ebeb80] 264 - core 165 r3223 0480cb0 - H.264/MPEG-4 AVC codec - Copyleft 2003-2025 - http://www.videolan.org/x264.html - options: cabac=1 ref=3 deblock=1:0:0 analyse=0x3:0x113 me=hex subme=7 psy=1 psy_rd=1.00:0.00 mixed_ref=1 me_range=16 chroma_me=1 trellis=1 8x8dct=1 cqm=0 deadzone=21,11 fast_pskip=1 chroma_qp_offset=-2 threads=24 lookahead_threads=4 sliced_threads=0 nr=0 decimate=1 interlaced=0 bluray_compat=0 constrained_intra=0 bframes=3 b_pyramid=2 b_adapt=1 b_bias=0 direct=1 weightb=1 open_gop=0 weightp=2 keyint=250 keyint_min=25 scenecut=40 intra_refresh=0 rc_lookahead=40 rc=crf mbtree=1 crf=23.0 qcomp=0.60 qpmin=0 qpmax=69 qpstep=4 ip_ratio=1.40 aq=1:1.00
Output #0, mp4, to 'D:\PythonProjects\viral-cutter-ai\benchmarks\runs\20260510_171633\roman_giertych_commentary\auto\cuts_subtitles\segment_4_11-14_48_11-53_92.mp4':
  Metadata:
    major_brand     : isom
    minor_version   : 512
    compatible_brands: isomiso2avc1mp41
    encoder         : Lavf62.12.101
  Stream #0:0(und): Video: h264 (avc1 / 0x31637661), yuvj420p(pc, bt470bg/unknown/unknown, progressive), 1080x1920 [SAR 1:1 DAR 9:16], q=2-31, 60 fps, 15360 tbn (default)
    Metadata:
      encoder         : Lavc62.28.101 libx264
      handler_name    : VideoHandler
    Side data:
      CPB properties: bitrate max/min/avg: 0/0/0 buffer size: 0 vbv_delay: N/A
  Stream #0:1(eng): Audio: aac (LC) (mp4a / 0x6134706D), 48000 Hz, stereo, fltp, 192 kb/s (default)
    Metadata:
      encoder         : Lavc62.28.101 aac
      handler_name    : SoundHandler
frame=  122 fps=0.0 q=31.0 size=     512KiB time=00:00:02.03 bitrate=2063.0kbits/s speed= 3.9x elapsed=0:00:00.52    frame=  301 fps=290 q=31.0 size=    1024KiB time=00:00:05.01 bitrate=1672.2kbits/s speed=4.84x elapsed=0:00:01.03    [Parsed_ass_0 @ 0000018af3d34400] fontselect: (Arial Black, 700, 0) -> Arial-Black, 0, Arial-Black
frame=  481 fps=310 q=31.0 size=    1792KiB time=00:00:08.01 bitrate=1831.2kbits/s speed=5.17x elapsed=0:00:01.55    frame=  659 fps=319 q=31.0 size=    2560KiB time=00:00:10.98 bitrate=1909.4kbits/s speed=5.32x elapsed=0:00:02.06    frame=  840 fps=324 q=31.0 size=    3328KiB time=00:00:14.00 bitrate=1947.4kbits/s speed= 5.4x elapsed=0:00:02.59    frame= 1009 fps=325 q=31.0 size=    4096KiB time=00:00:16.81 bitrate=1995.3kbits/s speed=5.41x elapsed=0:00:03.10    frame= 1236 fps=342 q=31.0 size=    4864KiB time=00:00:20.60 bitrate=1934.3kbits/s speed= 5.7x elapsed=0:00:03.61    frame= 1477 fps=358 q=31.0 size=    5120KiB time=00:00:24.61 bitrate=1703.9kbits/s speed=5.96x elapsed=0:00:04.12    frame= 1675 fps=360 q=31.0 size=    5888KiB time=00:00:27.91 bitrate=1727.8kbits/s speed=   6x elapsed=0:00:04.65    frame= 1881 fps=364 q=31.0 size=    6656KiB time=00:00:31.35 bitrate=1739.3kbits/s speed=6.07x elapsed=0:00:05.16    frame= 2097 fps=369 q=31.0 size=    7424KiB time=00:00:34.95 bitrate=1740.1kbits/s speed=6.15x elapsed=0:00:05.67    frame= 2322 fps=375 q=31.0 size=    7936KiB time=N/A bitrate=N/A speed=N/A elapsed=0:00:06.19    [out#0/mp4 @ 0000018af3cb3d40] video:7422KiB audio:938KiB subtitle:0KiB other streams:0KiB global headers:0KiB muxing overhead: 0.749302%
frame= 2364 fps=377 q=-1.0 Lsize=    8422KiB time=00:00:39.40 bitrate=1751.1kbits/s speed=6.29x elapsed=0:00:06.26    
[libx264 @ 0000018af5ebeb80] frame I:11    Avg QP:18.47  size: 60615
[libx264 @ 0000018af5ebeb80] frame P:719   Avg QP:21.18  size:  6933
[libx264 @ 0000018af5ebeb80] frame B:1634  Avg QP:24.49  size:  1192
[libx264 @ 0000018af5ebeb80] consecutive B-frames:  1.9% 17.3%  1.8% 79.0%
[libx264 @ 0000018af5ebeb80] mb I  I16..4: 15.8% 69.6% 14.6%
[libx264 @ 0000018af5ebeb80] mb P  I16..4:  1.9%  5.0%  0.1%  P16..4: 22.4%  1.6%  1.0%  0.0%  0.0%    skip:68.0%
[libx264 @ 0000018af5ebeb80] mb B  I16..4:  0.1%  0.1%  0.0%  B16..8: 13.1%  0.1%  0.0%  direct: 0.4%  skip:86.2%  L0:44.5% L1:55.2% BI: 0.3%
[libx264 @ 0000018af5ebeb80] 8x8 transform intra:70.1% inter:92.7%
[libx264 @ 0000018af5ebeb80] coded y,uvDC,uvAC intra: 17.0% 29.4% 7.5% inter: 0.9% 2.9% 0.0%
[libx264 @ 0000018af5ebeb80] i16 v,h,dc,p: 32% 39%  7% 23%
[libx264 @ 0000018af5ebeb80] i8 v,h,dc,ddl,ddr,vr,hd,vl,hu: 27% 19% 36%  2%  3%  3%  3%  3%  2%
[libx264 @ 0000018af5ebeb80] i4 v,h,dc,ddl,ddr,vr,hd,vl,hu: 28% 26% 10%  5%  7%  7%  7%  5%  5%
[libx264 @ 0000018af5ebeb80] i8c dc,h,v,p: 61% 17% 17%  5%
[libx264 @ 0000018af5ebeb80] Weighted P-Frames: Y:0.0% UV:0.0%
[libx264 @ 0000018af5ebeb80] ref P L0: 71.4%  5.1% 17.8%  5.7%
[libx264 @ 0000018af5ebeb80] ref B L0: 89.0%  9.4%  1.6%
[libx264 @ 0000018af5ebeb80] ref B L1: 97.9%  2.1%
[libx264 @ 0000018af5ebeb80] kb/s:1542.95
[aac @ 0000018af5c75b40] Qavg: 668.180
ffmpeg version 8.1.1-full_build-www.gyan.dev Copyright (c) 2000-2026 the FFmpeg developers
  built with gcc 15.2.0 (Rev13, Built by MSYS2 project)
  configuration: --enable-gpl --enable-version3 --enable-static --disable-w32threads --disable-autodetect --enable-cairo --enable-fontconfig --enable-iconv --enable-gnutls --enable-lcms2 --enable-libxml2 --enable-gmp --enable-bzlib --enable-lzma --enable-libsnappy --enable-zlib --enable-librist --enable-libsrt --enable-libssh --enable-libzmq --enable-avisynth --enable-libbluray --enable-libcaca --enable-libdvdnav --enable-libdvdread --enable-sdl2 --enable-libaribb24 --enable-libaribcaption --enable-libdav1d --enable-libdavs2 --enable-libopenjpeg --enable-libquirc --enable-libuavs3d --enable-libxevd --enable-libzvbi --enable-liboapv --enable-libqrencode --enable-librav1e --enable-libsvtav1 --enable-libvvenc --enable-libwebp --enable-libx264 --enable-libx265 --enable-libxavs2 --enable-libxeve --enable-libxvid --enable-libaom --enable-libjxl --enable-libsvtjpegxs --enable-libvpx --enable-mediafoundation --enable-libass --enable-frei0r --enable-libfreetype --enable-libfribidi --enable-libharfbuzz --enable-liblensfun --enable-libvidstab --enable-libvmaf --enable-libzimg --enable-amf --enable-cuda-llvm --enable-cuvid --enable-dxva2 --enable-d3d11va --enable-d3d12va --enable-ffnvcodec --enable-libvpl --enable-nvdec --enable-nvenc --enable-vaapi --enable-libshaderc --enable-vulkan --enable-libplacebo --enable-opencl --enable-libcdio --enable-openal --enable-libgme --enable-libmodplug --enable-libopenmpt --enable-libopencore-amrwb --enable-libmp3lame --enable-libshine --enable-libtheora --enable-libtwolame --enable-libvo-amrwbenc --enable-libcodec2 --enable-libilbc --enable-libgsm --enable-liblc3 --enable-libopencore-amrnb --enable-libopus --enable-libspeex --enable-libvorbis --enable-ladspa --enable-libbs2b --enable-libflite --enable-libmysofa --enable-librubberband --enable-libsoxr --enable-chromaprint --enable-whisper
  libavutil      60. 26.101 / 60. 26.101
  libavcodec     62. 28.101 / 62. 28.101
  libavformat    62. 12.101 / 62. 12.101
  libavdevice    62.  3.101 / 62.  3.101
  libavfilter    11. 14.101 / 11. 14.101
  libswscale      9.  5.101 /  9.  5.101
  libswresample   6.  3.101 /  6.  3.101
Input #0, mov,mp4,m4a,3gp,3g2,mj2, from 'D:\PythonProjects\viral-cutter-ai\benchmarks\runs\20260510_171633\roman_giertych_commentary\auto\cuts_raw\segment_5_12-20_16_12-56_24.mp4':
  Metadata:
    major_brand     : isom
    minor_version   : 512
    compatible_brands: isomiso2avc1mp41
    encoder         : Lavf62.12.101
  Duration: 00:00:36.10, start: 0.000000, bitrate: 3505 kb/s
  Stream #0:0[0x1](und): Video: h264 (High) (avc1 / 0x31637661), yuvj420p(pc, bt470bg/unknown/unknown, progressive), 1080x1920 [SAR 1:1 DAR 9:16], 3303 kb/s, 60 fps, 60 tbr, 15360 tbn, start 0.033008 (default)
    Metadata:
      handler_name    : VideoHandler
      encoder         : Lavc62.28.101 libx264
  Stream #0:1[0x2](eng): Audio: aac (LC) (mp4a / 0x6134706D), 48000 Hz, stereo, fltp, 194 kb/s (default)
    Metadata:
      handler_name    : SoundHandler
[Parsed_ass_0 @ 0000012d683308c0] libass API version: 0x1704000
[Parsed_ass_0 @ 0000012d683308c0] libass source: commit: 0.17.4-27-g1cbba0a8818c83495114b3c2b5730410eecbdb2c
[Parsed_ass_0 @ 0000012d683308c0] Shaper: FriBidi 1.0.16 (SIMPLE) HarfBuzz-ng 14.2.0 (COMPLEX)
[Parsed_ass_0 @ 0000012d683308c0] Using font provider directwrite (with GDI)
[Parsed_ass_0 @ 0000012d683308c0] Added subtitle file: 'D:\PythonProjects\viral-cutter-ai\benchmarks\runs\20260510_171633\roman_giertych_commentary\auto\cuts_raw\segment_5_12-20_16_12-56_24.ass' (7 styles, 12 events)
Stream mapping:
  Stream #0:0 -> #0:0 (h264 (native) -> h264 (libx264))
  Stream #0:1 -> #0:1 (aac (native) -> aac (native))
Press [q] to stop, [?] for help
[Parsed_ass_0 @ 0000012d68330580] libass API version: 0x1704000
[Parsed_ass_0 @ 0000012d68330580] libass source: commit: 0.17.4-27-g1cbba0a8818c83495114b3c2b5730410eecbdb2c
[Parsed_ass_0 @ 0000012d68330580] Shaper: FriBidi 1.0.16 (SIMPLE) HarfBuzz-ng 14.2.0 (COMPLEX)
[Parsed_ass_0 @ 0000012d68330580] Using font provider directwrite (with GDI)
[Parsed_ass_0 @ 0000012d68330580] Added subtitle file: 'D:\PythonProjects\viral-cutter-ai\benchmarks\runs\20260510_171633\roman_giertych_commentary\auto\cuts_raw\segment_5_12-20_16_12-56_24.ass' (7 styles, 12 events)
[Parsed_ass_0 @ 0000012d68330580] fontselect: (Arial Black, 400, 0) -> Arial-Black, 0, Arial-Black
[libx264 @ 0000012d6a34eac0] using SAR=1/1
[libx264 @ 0000012d6a34eac0] using cpu capabilities: MMX2 SSE2Fast SSSE3 SSE4.2 AVX FMA3 BMI2 AVX2 AVX512
[libx264 @ 0000012d6a34eac0] profile High, level 4.2, 4:2:0, 8-bit
[libx264 @ 0000012d6a34eac0] 264 - core 165 r3223 0480cb0 - H.264/MPEG-4 AVC codec - Copyleft 2003-2025 - http://www.videolan.org/x264.html - options: cabac=1 ref=3 deblock=1:0:0 analyse=0x3:0x113 me=hex subme=7 psy=1 psy_rd=1.00:0.00 mixed_ref=1 me_range=16 chroma_me=1 trellis=1 8x8dct=1 cqm=0 deadzone=21,11 fast_pskip=1 chroma_qp_offset=-2 threads=24 lookahead_threads=4 sliced_threads=0 nr=0 decimate=1 interlaced=0 bluray_compat=0 constrained_intra=0 bframes=3 b_pyramid=2 b_adapt=1 b_bias=0 direct=1 weightb=1 open_gop=0 weightp=2 keyint=250 keyint_min=25 scenecut=40 intra_refresh=0 rc_lookahead=40 rc=crf mbtree=1 crf=23.0 qcomp=0.60 qpmin=0 qpmax=69 qpstep=4 ip_ratio=1.40 aq=1:1.00
Output #0, mp4, to 'D:\PythonProjects\viral-cutter-ai\benchmarks\runs\20260510_171633\roman_giertych_commentary\auto\cuts_subtitles\segment_5_12-20_16_12-56_24.mp4':
  Metadata:
    major_brand     : isom
    minor_version   : 512
    compatible_brands: isomiso2avc1mp41
    encoder         : Lavf62.12.101
  Stream #0:0(und): Video: h264 (avc1 / 0x31637661), yuvj420p(pc, bt470bg/unknown/unknown, progressive), 1080x1920 [SAR 1:1 DAR 9:16], q=2-31, 60 fps, 15360 tbn (default)
    Metadata:
      encoder         : Lavc62.28.101 libx264
      handler_name    : VideoHandler
    Side data:
      CPB properties: bitrate max/min/avg: 0/0/0 buffer size: 0 vbv_delay: N/A
  Stream #0:1(eng): Audio: aac (LC) (mp4a / 0x6134706D), 48000 Hz, stereo, fltp, 192 kb/s (default)
    Metadata:
      encoder         : Lavc62.28.101 aac
      handler_name    : SoundHandler
frame=   68 fps=0.0 q=31.0 size=     512KiB time=00:00:01.13 bitrate=3701.2kbits/s speed=2.19x elapsed=0:00:00.51    [Parsed_ass_0 @ 0000012d68330580] fontselect: (Arial Black, 700, 0) -> Arial-Black, 0, Arial-Black
frame=  204 fps=196 q=31.0 size=    1536KiB time=00:00:03.40 bitrate=3701.0kbits/s speed=3.27x elapsed=0:00:01.03    frame=  344 fps=222 q=31.0 size=    2560KiB time=00:00:05.73 bitrate=3657.9kbits/s speed=3.71x elapsed=0:00:01.54    frame=  500 fps=242 q=31.0 size=    3584KiB time=00:00:08.33 bitrate=3523.3kbits/s speed=4.03x elapsed=0:00:02.06    frame=  647 fps=251 q=31.0 size=    4608KiB time=00:00:10.78 bitrate=3500.7kbits/s speed=4.19x elapsed=0:00:02.57    frame=  839 fps=271 q=31.0 size=    5376KiB time=00:00:13.98 bitrate=3149.5kbits/s speed=4.52x elapsed=0:00:03.09    frame= 1023 fps=283 q=31.0 size=    6400KiB time=00:00:17.05 bitrate=3075.0kbits/s speed=4.72x elapsed=0:00:03.61    frame= 1244 fps=302 q=31.0 size=    7168KiB time=00:00:20.73 bitrate=2832.2kbits/s speed=5.03x elapsed=0:00:04.12    frame= 1498 fps=323 q=31.0 size=    7936KiB time=00:00:24.96 bitrate=2604.0kbits/s speed=5.38x elapsed=0:00:04.63    frame= 1679 fps=325 q=31.0 size=    8704KiB time=00:00:27.98 bitrate=2548.1kbits/s speed=5.42x elapsed=0:00:05.16    frame= 1837 fps=324 q=31.0 size=    9472KiB time=00:00:30.61 bitrate=2534.4kbits/s speed= 5.4x elapsed=0:00:05.66    frame= 2030 fps=328 q=31.0 size=   10496KiB time=00:00:33.83 bitrate=2541.4kbits/s speed=5.47x elapsed=0:00:06.19    [out#0/mp4 @ 0000012d682b1280] video:10061KiB audio:858KiB subtitle:0KiB other streams:0KiB global headers:0KiB muxing overhead: 0.526705%
frame= 2163 fps=335 q=-1.0 Lsize=   10976KiB time=00:00:36.05 bitrate=2494.1kbits/s speed=5.58x elapsed=0:00:06.46    
[libx264 @ 0000012d6a34eac0] frame I:11    Avg QP:19.63  size: 59161
[libx264 @ 0000012d6a34eac0] frame P:625   Avg QP:22.47  size: 11465
[libx264 @ 0000012d6a34eac0] frame B:1527  Avg QP:25.73  size:  1627
[libx264 @ 0000012d6a34eac0] consecutive B-frames:  1.2% 13.3%  1.7% 83.8%
[libx264 @ 0000012d6a34eac0] mb I  I16..4: 18.0% 67.6% 14.4%
[libx264 @ 0000012d6a34eac0] mb P  I16..4:  3.8%  9.6%  0.3%  P16..4: 26.1%  2.9%  1.3%  0.0%  0.0%    skip:55.9%
[libx264 @ 0000012d6a34eac0] mb B  I16..4:  0.1%  0.3%  0.0%  B16..8: 14.8%  0.2%  0.0%  direct: 0.2%  skip:84.3%  L0:43.9% L1:55.0% BI: 1.1%
[libx264 @ 0000012d6a34eac0] 8x8 transform intra:69.3% inter:87.0%
[libx264 @ 0000012d6a34eac0] coded y,uvDC,uvAC intra: 27.3% 14.2% 2.5% inter: 1.9% 2.2% 0.0%
[libx264 @ 0000012d6a34eac0] i16 v,h,dc,p: 21% 37%  5% 38%
[libx264 @ 0000012d6a34eac0] i8 v,h,dc,ddl,ddr,vr,hd,vl,hu: 21% 24% 23%  4%  6%  5%  8%  4%  4%
[libx264 @ 0000012d6a34eac0] i4 v,h,dc,ddl,ddr,vr,hd,vl,hu: 21% 30%  8%  5%  8%  7% 10%  5%  5%
[libx264 @ 0000012d6a34eac0] i8c dc,h,v,p: 81%  9%  8%  2%
[libx264 @ 0000012d6a34eac0] Weighted P-Frames: Y:0.0% UV:0.0%
[libx264 @ 0000012d6a34eac0] ref P L0: 71.9%  8.9% 15.0%  4.2%
[libx264 @ 0000012d6a34eac0] ref B L0: 89.5%  9.1%  1.5%
[libx264 @ 0000012d6a34eac0] ref B L1: 98.0%  2.0%
[libx264 @ 0000012d6a34eac0] kb/s:2286.00
[aac @ 0000012d6a2eba40] Qavg: 687.021
Loading transcript: D:\PythonProjects\viral-cutter-ai\benchmarks\runs\20260510_171633\roman_giertych_commentary\shared\transcript.json
Found 5 cut videos

Processing: segment_1_19-54_36_20-31_18.mp4
Raw video already present: segment_1_19-54_36_20-31_18.mp4
  Adding subtitles: segment_1_19-54_36_20-31_18.mp4
Added subtitles: segment_1_19-54_36_20-31_18.mp4

Processing: segment_2_19-09_66_19-41_82.mp4
Raw video already present: segment_2_19-09_66_19-41_82.mp4
  Adding subtitles: segment_2_19-09_66_19-41_82.mp4
Added subtitles: segment_2_19-09_66_19-41_82.mp4

Processing: segment_3_00-53_90_01-26_86.mp4
Raw video already present: segment_3_00-53_90_01-26_86.mp4
  Adding subtitles: segment_3_00-53_90_01-26_86.mp4
Added subtitles: segment_3_00-53_90_01-26_86.mp4

Processing: segment_4_11-14_48_11-53_92.mp4
Raw video already present: segment_4_11-14_48_11-53_92.mp4
  Adding subtitles: segment_4_11-14_48_11-53_92.mp4
Added subtitles: segment_4_11-14_48_11-53_92.mp4

Processing: segment_5_12-20_16_12-56_24.mp4
Raw video already present: segment_5_12-20_16_12-56_24.mp4
  Adding subtitles: segment_5_12-20_16_12-56_24.mp4
Added subtitles: segment_5_12-20_16_12-56_24.mp4

Done!
  Raw videos: D:\PythonProjects\viral-cutter-ai\benchmarks\runs\20260510_171633\roman_giertych_commentary\auto\cuts_raw
  Subtitled videos: D:\PythonProjects\viral-cutter-ai\benchmarks\runs\20260510_171633\roman_giertych_commentary\auto\cuts_subtitles
$ D:\PythonProjects\viral-cutter-ai\.venv\Scripts\python.exe D:\PythonProjects\viral-cutter-ai\subtitler.py --transcript D:\PythonProjects\viral-cutter-ai\benchmarks\runs\20260510_171633\roman_giertych_commentary\shared\transcript.json --input-dir D:\PythonProjects\viral-cutter-ai\benchmarks\runs\20260510_171633\roman_giertych_commentary\auto\cuts_raw --output-raw D:\PythonProjects\viral-cutter-ai\benchmarks\runs\20260510_171633\roman_giertych_commentary\auto\cuts_raw --output-subs D:\PythonProjects\viral-cutter-ai\benchmarks\runs\20260510_171633\roman_giertych_commentary\auto\cuts_subtitles

